<mxfile host="app.diagrams.net" modified="2020-08-17T21:10:46.873Z" agent="5.0 (Windows NT 10.0; Win64; x64) AppleWebKit/537.36 (KHTML, like Gecko) Chrome/84.0.4147.125 Safari/537.36" etag="rtnaoXk5bO3CslfZFKQ3" version="13.6.2" type="github">
  <diagram id="0A_w71HkDoob6CebVLxl" name="Page-1">
    <mxGraphModel dx="1736" dy="920" grid="1" gridSize="10" guides="1" tooltips="1" connect="1" arrows="1" fold="1" page="1" pageScale="1" pageWidth="1100" pageHeight="850" math="0" shadow="0">
      <root>
        <mxCell id="0" />
        <mxCell id="1" parent="0" />
        <mxCell id="Y8VUTRpkqL2jvO7BEa0--1" value="" style="rounded=0;whiteSpace=wrap;html=1;" vertex="1" parent="1">
          <mxGeometry width="1100" height="850" as="geometry" />
        </mxCell>
        <mxCell id="Y8VUTRpkqL2jvO7BEa0--12" style="edgeStyle=orthogonalEdgeStyle;rounded=0;orthogonalLoop=1;jettySize=auto;html=1;exitX=1;exitY=0.75;exitDx=0;exitDy=0;entryX=0;entryY=0.75;entryDx=0;entryDy=0;" edge="1" parent="1" source="Y8VUTRpkqL2jvO7BEa0--7" target="Y8VUTRpkqL2jvO7BEa0--9">
          <mxGeometry relative="1" as="geometry" />
        </mxCell>
        <mxCell id="Y8VUTRpkqL2jvO7BEa0--7" value="&lt;span style=&quot;color: rgb(51 , 51 , 51) ; font-family: &amp;#34;lato&amp;#34; , sans-serif ; background-color: rgb(255 , 255 , 255)&quot;&gt;&lt;font style=&quot;font-size: 20px&quot;&gt;&lt;b&gt;Authenticate&amp;nbsp;&lt;/b&gt;&lt;/font&gt;&lt;/span&gt;" style="rounded=1;whiteSpace=wrap;html=1;" vertex="1" parent="1">
          <mxGeometry x="70" y="330" width="150" height="60" as="geometry" />
        </mxCell>
        <mxCell id="Y8VUTRpkqL2jvO7BEa0--8" style="edgeStyle=orthogonalEdgeStyle;rounded=0;orthogonalLoop=1;jettySize=auto;html=1;exitX=0.75;exitY=0;exitDx=0;exitDy=0;entryX=1;entryY=0.5;entryDx=0;entryDy=0;" edge="1" parent="1" source="Y8VUTRpkqL2jvO7BEa0--7" target="Y8VUTRpkqL2jvO7BEa0--7">
          <mxGeometry relative="1" as="geometry">
            <Array as="points">
              <mxPoint x="182" y="260" />
              <mxPoint x="280" y="260" />
              <mxPoint x="280" y="360" />
            </Array>
          </mxGeometry>
        </mxCell>
        <mxCell id="Y8VUTRpkqL2jvO7BEa0--13" style="edgeStyle=orthogonalEdgeStyle;rounded=0;orthogonalLoop=1;jettySize=auto;html=1;exitX=0.25;exitY=0;exitDx=0;exitDy=0;entryX=0.75;entryY=0;entryDx=0;entryDy=0;" edge="1" parent="1" source="Y8VUTRpkqL2jvO7BEa0--9" target="Y8VUTRpkqL2jvO7BEa0--11">
          <mxGeometry relative="1" as="geometry">
            <Array as="points">
              <mxPoint x="398" y="260" />
              <mxPoint x="873" y="260" />
            </Array>
          </mxGeometry>
        </mxCell>
        <mxCell id="Y8VUTRpkqL2jvO7BEa0--14" style="edgeStyle=orthogonalEdgeStyle;rounded=0;orthogonalLoop=1;jettySize=auto;html=1;exitX=1;exitY=0.5;exitDx=0;exitDy=0;entryX=0;entryY=0.5;entryDx=0;entryDy=0;" edge="1" parent="1" source="Y8VUTRpkqL2jvO7BEa0--9" target="Y8VUTRpkqL2jvO7BEa0--10">
          <mxGeometry relative="1" as="geometry" />
        </mxCell>
        <mxCell id="Y8VUTRpkqL2jvO7BEa0--17" style="edgeStyle=orthogonalEdgeStyle;rounded=0;orthogonalLoop=1;jettySize=auto;html=1;exitX=0.5;exitY=1;exitDx=0;exitDy=0;entryX=0.5;entryY=0;entryDx=0;entryDy=0;" edge="1" parent="1" source="Y8VUTRpkqL2jvO7BEa0--9" target="Y8VUTRpkqL2jvO7BEa0--16">
          <mxGeometry relative="1" as="geometry" />
        </mxCell>
        <mxCell id="Y8VUTRpkqL2jvO7BEa0--9" value="&lt;span style=&quot;color: rgb(51 , 51 , 51) ; font-family: &amp;#34;lato&amp;#34; , sans-serif ; background-color: rgb(255 , 255 , 255)&quot;&gt;&lt;font style=&quot;font-size: 20px&quot;&gt;&lt;b&gt;Logged in&lt;/b&gt;&lt;/font&gt;&lt;/span&gt;" style="rounded=1;whiteSpace=wrap;html=1;" vertex="1" parent="1">
          <mxGeometry x="360" y="330" width="150" height="60" as="geometry" />
        </mxCell>
        <mxCell id="Y8VUTRpkqL2jvO7BEa0--15" style="edgeStyle=orthogonalEdgeStyle;rounded=0;orthogonalLoop=1;jettySize=auto;html=1;exitX=1;exitY=0.5;exitDx=0;exitDy=0;entryX=0;entryY=0.5;entryDx=0;entryDy=0;" edge="1" parent="1" source="Y8VUTRpkqL2jvO7BEa0--10" target="Y8VUTRpkqL2jvO7BEa0--11">
          <mxGeometry relative="1" as="geometry" />
        </mxCell>
        <mxCell id="Y8VUTRpkqL2jvO7BEa0--20" style="edgeStyle=orthogonalEdgeStyle;rounded=0;orthogonalLoop=1;jettySize=auto;html=1;exitX=0.75;exitY=1;exitDx=0;exitDy=0;entryX=0.207;entryY=-0.03;entryDx=0;entryDy=0;entryPerimeter=0;startArrow=classic;startFill=1;" edge="1" parent="1" source="Y8VUTRpkqL2jvO7BEa0--10" target="Y8VUTRpkqL2jvO7BEa0--18">
          <mxGeometry relative="1" as="geometry" />
        </mxCell>
        <mxCell id="Y8VUTRpkqL2jvO7BEa0--10" value="&lt;span style=&quot;color: rgb(51 , 51 , 51) ; font-family: &amp;#34;lato&amp;#34; , sans-serif ; background-color: rgb(255 , 255 , 255)&quot;&gt;&lt;font style=&quot;font-size: 20px&quot;&gt;&lt;b&gt;Request&amp;nbsp;&lt;/b&gt;&lt;/font&gt;&lt;/span&gt;" style="rounded=1;whiteSpace=wrap;html=1;" vertex="1" parent="1">
          <mxGeometry x="570" y="330" width="150" height="60" as="geometry" />
        </mxCell>
        <mxCell id="Y8VUTRpkqL2jvO7BEa0--19" style="edgeStyle=orthogonalEdgeStyle;rounded=0;orthogonalLoop=1;jettySize=auto;html=1;exitX=0.25;exitY=1;exitDx=0;exitDy=0;startArrow=classic;startFill=1;" edge="1" parent="1" source="Y8VUTRpkqL2jvO7BEa0--11" target="Y8VUTRpkqL2jvO7BEa0--18">
          <mxGeometry relative="1" as="geometry" />
        </mxCell>
        <mxCell id="Y8VUTRpkqL2jvO7BEa0--31" style="edgeStyle=orthogonalEdgeStyle;rounded=0;orthogonalLoop=1;jettySize=auto;html=1;exitX=1;exitY=0.5;exitDx=0;exitDy=0;startArrow=none;startFill=0;" edge="1" parent="1" source="Y8VUTRpkqL2jvO7BEa0--11">
          <mxGeometry relative="1" as="geometry">
            <mxPoint x="931" y="660" as="targetPoint" />
          </mxGeometry>
        </mxCell>
        <mxCell id="Y8VUTRpkqL2jvO7BEa0--11" value="&lt;span style=&quot;color: rgb(51 , 51 , 51) ; font-family: &amp;#34;lato&amp;#34; , sans-serif ; background-color: rgb(255 , 255 , 255)&quot;&gt;&lt;font style=&quot;font-size: 20px&quot;&gt;&lt;b&gt;Provide Book&lt;/b&gt;&lt;/font&gt;&lt;/span&gt;" style="rounded=1;whiteSpace=wrap;html=1;" vertex="1" parent="1">
          <mxGeometry x="760" y="330" width="150" height="60" as="geometry" />
        </mxCell>
        <mxCell id="Y8VUTRpkqL2jvO7BEa0--16" value="&lt;span style=&quot;color: rgb(51 , 51 , 51) ; font-family: &amp;#34;lato&amp;#34; , sans-serif ; background-color: rgb(255 , 255 , 255)&quot;&gt;&lt;font style=&quot;font-size: 20px&quot;&gt;&lt;b&gt;Search&lt;/b&gt;&lt;/font&gt;&lt;/span&gt;" style="rounded=1;whiteSpace=wrap;html=1;" vertex="1" parent="1">
          <mxGeometry x="350" y="505" width="150" height="60" as="geometry" />
        </mxCell>
        <mxCell id="Y8VUTRpkqL2jvO7BEa0--21" style="edgeStyle=orthogonalEdgeStyle;rounded=0;orthogonalLoop=1;jettySize=auto;html=1;exitX=0;exitY=0.5;exitDx=0;exitDy=0;startArrow=classic;startFill=1;" edge="1" parent="1" source="Y8VUTRpkqL2jvO7BEa0--18" target="Y8VUTRpkqL2jvO7BEa0--16">
          <mxGeometry relative="1" as="geometry" />
        </mxCell>
        <mxCell id="Y8VUTRpkqL2jvO7BEa0--32" style="edgeStyle=orthogonalEdgeStyle;rounded=0;orthogonalLoop=1;jettySize=auto;html=1;exitX=1;exitY=0.5;exitDx=0;exitDy=0;entryX=0.5;entryY=0;entryDx=0;entryDy=0;startArrow=none;startFill=0;" edge="1" parent="1" source="Y8VUTRpkqL2jvO7BEa0--18" target="Y8VUTRpkqL2jvO7BEa0--28">
          <mxGeometry relative="1" as="geometry" />
        </mxCell>
        <mxCell id="Y8VUTRpkqL2jvO7BEa0--18" value="&lt;font style=&quot;font-size: 20px&quot;&gt;&lt;b&gt;&lt;span style=&quot;color: rgb(51 , 51 , 51) ; font-family: &amp;#34;lato&amp;#34; , sans-serif ; background-color: rgb(255 , 255 , 255)&quot;&gt;Acknowledgement&amp;nbsp;&lt;br&gt;&lt;/span&gt;State&lt;/b&gt;&lt;/font&gt;" style="rounded=1;whiteSpace=wrap;html=1;" vertex="1" parent="1">
          <mxGeometry x="650" y="490" width="200" height="90" as="geometry" />
        </mxCell>
        <mxCell id="Y8VUTRpkqL2jvO7BEa0--26" value="" style="ellipse;html=1;shape=startState;fillColor=#000000;strokeColor=#ff0000;" vertex="1" parent="1">
          <mxGeometry x="100" y="100" width="30" height="30" as="geometry" />
        </mxCell>
        <mxCell id="Y8VUTRpkqL2jvO7BEa0--27" value="" style="edgeStyle=orthogonalEdgeStyle;html=1;verticalAlign=bottom;endArrow=open;endSize=8;strokeColor=#ff0000;" edge="1" source="Y8VUTRpkqL2jvO7BEa0--26" parent="1">
          <mxGeometry relative="1" as="geometry">
            <mxPoint x="115" y="330" as="targetPoint" />
            <Array as="points">
              <mxPoint x="115" y="330" />
            </Array>
          </mxGeometry>
        </mxCell>
        <mxCell id="Y8VUTRpkqL2jvO7BEa0--30" style="edgeStyle=orthogonalEdgeStyle;rounded=0;orthogonalLoop=1;jettySize=auto;html=1;exitX=0.5;exitY=1;exitDx=0;exitDy=0;entryX=0.5;entryY=0;entryDx=0;entryDy=0;startArrow=none;startFill=0;" edge="1" parent="1" source="Y8VUTRpkqL2jvO7BEa0--28" target="Y8VUTRpkqL2jvO7BEa0--29">
          <mxGeometry relative="1" as="geometry" />
        </mxCell>
        <mxCell id="Y8VUTRpkqL2jvO7BEa0--28" value="&lt;span style=&quot;color: rgb(51 , 51 , 51) ; font-family: &amp;#34;lato&amp;#34; , sans-serif ; background-color: rgb(255 , 255 , 255)&quot;&gt;&lt;font style=&quot;font-size: 20px&quot;&gt;&lt;b&gt;Logged out&lt;/b&gt;&lt;/font&gt;&lt;/span&gt;" style="rounded=1;whiteSpace=wrap;html=1;" vertex="1" parent="1">
          <mxGeometry x="820" y="660" width="150" height="60" as="geometry" />
        </mxCell>
        <mxCell id="Y8VUTRpkqL2jvO7BEa0--29" value="" style="ellipse;html=1;shape=endState;fillColor=#000000;strokeColor=#ff0000;" vertex="1" parent="1">
          <mxGeometry x="870" y="780" width="30" height="30" as="geometry" />
        </mxCell>
        <mxCell id="Y8VUTRpkqL2jvO7BEa0--33" value="&lt;b&gt;&lt;font style=&quot;font-size: 24px&quot;&gt;CT/2015/054&lt;/font&gt;&lt;/b&gt;" style="text;html=1;strokeColor=none;fillColor=none;align=center;verticalAlign=middle;whiteSpace=wrap;rounded=0;" vertex="1" parent="1">
          <mxGeometry x="80" y="30" width="40" height="20" as="geometry" />
        </mxCell>
      </root>
    </mxGraphModel>
  </diagram>
</mxfile>
